<?xml version="1.0" encoding="utf-8"?>
<!-- Generator: Adobe Illustrator 24.1.2, SVG Export Plug-In . SVG Version: 6.00 Build 0)  -->
<svg version="1.1" id="Layer_1" xmlns="http://www.w3.org/2000/svg" xmlns:xlink="http://www.w3.org/1999/xlink" x="0px" y="0px"
	 viewBox="0 0 612 792" style="enable-background:new 0 0 612 792;" xml:space="preserve">
<style type="text/css">
	.st0{fill:#5FC4D0;}
	.st1{fill:#99C976;}
</style>
<g>
	<polygon class="st0" points="5.64,401.76 5.64,690.39 51.21,690.39 265.45,563.59 	"/>
	<polygon class="st0" points="605.79,690.39 605.79,641.11 522.54,690.39 	"/>
	<polygon class="st1" points="307.64,538.62 5.64,350.52 5.64,379.9 283.45,552.94 	"/>
	<polygon class="st0" points="605.79,383.72 87.64,690.39 141.67,690.39 605.79,415.69 	"/>
	<polygon class="st0" points="605.79,490.38 267.86,690.39 315.42,690.39 605.79,518.53 	"/>
	<polygon class="st0" points="605.79,437.26 178.1,690.39 231.42,690.39 605.79,468.82 	"/>
	<polygon class="st1" points="349.77,513.68 5.64,299.34 5.64,328.65 325.64,527.97 	"/>
	<polygon class="st1" points="435.6,462.89 5.64,195.08 5.64,227.08 409.26,478.48 	"/>
	<polygon class="st0" points="605.79,540.09 351.85,690.39 400.7,690.39 605.79,569 	"/>
	<polygon class="st1" points="480.29,436.44 5.64,140.8 5.64,173.22 453.59,452.24 	"/>
	<polygon class="st1" points="391.26,489.13 5.64,248.94 5.64,277.48 367.76,503.03 	"/>
	<polyline class="st0" points="605.79,619.55 605.79,590.57 437.14,690.39 486.1,690.39 	"/>
	<path class="st1" d="M5.64,90.24v28.7l416.81,259.62l-0.14-18.05c0.07-16.38-4.89-34.13-18.22-49.49
		c-7.17-8.27-17.43-13.56-24.55-16.49c0.2-0.83,0.78-3.55,0.97-4.38c4.83,0.49,9.76,1.49,16.22,5.55c-1.5-7.1-1.67-15.03-1.61-19.76
		c1.46-0.29,4.4-0.71,4.4-0.71s-0.22,25.69,14.6,32.08c6.56-8.75,8.65-22.27,9.3-29.43c0.52,0.06,2.86,0.22,3.38,0.28
		c0.54,6.32-1.04,17.14-3.1,25.28c-4.46,17.59,5.92,30.45,9.65,34.82c3.44-12.54,7.56-17.26,11.45-26.22
		c2.2-5.08,2.91-14.36,2.28-24.15c0.47-0.06,3.06-1.53,3.54-1.57c1.21,4.33,1.91,10.59,2.13,15.18
		c9.02-11.9,10.65-26.29,10.75-37.06c1.02-0.23,3.61-0.47,4.63-0.73c0.33,6.95,0.05,18.62-3.83,27.72
		c3.55-2.58,8.04-3.91,13.89-5.18c0.12,0.57,0.18,3.96,0.28,4.53c-12.13,5.99-34.4,29.46-35.49,59.39
		c-0.3,8.24-0.01,16.51,0.34,21.7c0.36,5.46,0.97,13.41,2.48,21.24l52.48,32.69l107.51-63.63V90.24H5.64z M549.25,217.67
		c0,11.97-9.7,21.67-21.67,21.67c-11.97,0-21.67-9.7-21.67-21.67c0-7.12,3.45-13.43,8.76-17.38c-1.46,0.5-3.01,0.83-4.64,0.83
		c-7.98,0-14.44-6.47-14.44-14.44c0-7.98,6.47-14.44,14.44-14.44c7.98,0,14.44,6.47,14.44,14.44c0,4.4-2.01,8.3-5.12,10.95
		c2.54-1.04,5.31-1.62,8.22-1.62C539.55,196,549.25,205.7,549.25,217.67z M513.33,145.48c6.85,0,12.41,5.56,12.41,12.41
		s-5.56,12.41-12.41,12.41c-6.85,0-12.41-5.56-12.41-12.41S506.48,145.48,513.33,145.48z M484.95,117.76
		c9.52,0,17.23,7.72,17.23,17.23c0,8.37-5.97,15.34-13.89,16.9c6.06,1.01,10.68,6.24,10.68,12.58c0,7.07-5.73,12.79-12.79,12.79
		s-12.79-5.73-12.79-12.79c0-6.04,4.2-11.08,9.84-12.42c-8.7-0.87-15.52-8.13-15.52-17.06
		C467.71,125.47,475.43,117.76,484.95,117.76z M468.09,163.99c0,12.08-9.79,21.87-21.87,21.87c-12.08,0-21.87-9.79-21.87-21.87
		s9.79-21.87,21.87-21.87C458.29,142.12,468.09,151.91,468.09,163.99z M449.3,108.96c8.01,0,14.51,6.5,14.51,14.51
		c0,8.01-6.5,14.51-14.51,14.51c-8.01,0-14.51-6.5-14.51-14.51C434.79,115.46,441.28,108.96,449.3,108.96z M421.06,121.92
		c7.37,0,13.34,5.97,13.34,13.34c0,7.37-5.97,13.34-13.34,13.34c-7.37,0-13.34-5.97-13.34-13.34
		C407.71,127.9,413.69,121.92,421.06,121.92z M380.2,126.08c16.43,0,29.75,13.32,29.75,29.75s-13.32,29.75-29.75,29.75
		s-29.75-13.32-29.75-29.75S363.77,126.08,380.2,126.08z M383.76,205.87c0,12.34-10,22.35-22.35,22.35
		c-12.34,0-22.35-10-22.35-22.35c0-12.34,10-22.35,22.35-22.35C373.76,183.53,383.76,193.53,383.76,205.87z M333.17,134.35
		c4.89,0,8.86,3.97,8.86,8.86c0,4.89-3.97,8.86-8.86,8.86s-8.86-3.97-8.86-8.86C324.31,138.32,328.28,134.35,333.17,134.35z
		 M333.17,167c7.53,0,13.64,6.11,13.64,13.64c0,7.53-6.11,13.64-13.64,13.64c-7.53,0-13.64-6.11-13.64-13.64
		C319.53,173.11,325.64,167,333.17,167z M290.41,260.22c-7.3,0-13.21-5.91-13.21-13.21c0-7.3,5.91-13.21,13.21-13.21
		c7.3,0,13.21,5.91,13.21,13.21C303.62,254.3,297.71,260.22,290.41,260.22z M302.27,206.4c0-7.87,6.38-14.26,14.26-14.26
		s14.26,6.38,14.26,14.26c0,7.87-6.38,14.26-14.26,14.26S302.27,214.27,302.27,206.4z M339.72,290.71c-4.75,0-8.6-3.85-8.6-8.6
		c0-4.75,3.85-8.6,8.6-8.6c4.75,0,8.6,3.85,8.6,8.6C348.32,286.86,344.47,290.71,339.72,290.71z M337.83,261.27
		c-9.84,0-17.83-7.98-17.83-17.83c0-9.84,7.98-17.83,17.83-17.83c9.84,0,17.83,7.98,17.83,17.83
		C355.66,253.29,347.68,261.27,337.83,261.27z M373.62,284.57c-9.92,0-17.96-8.04-17.96-17.96c0-9.92,8.04-17.96,17.96-17.96
		s17.96,8.04,17.96,17.96C391.58,276.53,383.54,284.57,373.62,284.57z M383.76,249.97c-7.01,0-12.7-5.69-12.7-12.7
		c0-7.01,5.69-12.7,12.7-12.7c7.01,0,12.7,5.69,12.7,12.7C396.46,244.28,390.78,249.97,383.76,249.97z M391.58,203.13
		c0-12.87,10.44-23.31,23.31-23.31s23.31,10.44,23.31,23.31s-10.44,23.31-23.31,23.31S391.58,216,391.58,203.13z M414.72,243.03
		c0-7.89,6.4-14.29,14.29-14.29s14.29,6.4,14.29,14.29s-6.4,14.29-14.29,14.29S414.72,250.92,414.72,243.03z M436.82,282.01
		c-5.63,0-10.19-4.56-10.19-10.19c0-5.63,4.56-10.19,10.19-10.19c5.63,0,10.19,4.56,10.19,10.19
		C447.01,277.45,442.45,282.01,436.82,282.01z M500.44,315.56c-5.42,0-9.82-4.4-9.82-9.82c0-5.42,4.4-9.82,9.82-9.82
		c5.42,0,9.82,4.4,9.82,9.82C510.27,311.16,505.87,315.56,500.44,315.56z M494.41,277.99c-12.57,0-22.76-10.19-22.76-22.76
		c0-7.04,3.2-13.33,8.22-17.5c-3.61,1.6-7.59,2.5-11.78,2.5c-16.1,0-29.14-13.05-29.14-29.14c0-16.1,13.05-29.14,29.14-29.14
		c16.1,0,29.14,13.05,29.14,29.14c0,9.4-4.47,17.74-11.38,23.07c2.64-1.07,5.53-1.68,8.56-1.68c12.57,0,22.76,10.19,22.76,22.76
		C517.17,267.8,506.98,277.99,494.41,277.99z M539.64,292.12c-7.81,0-14.13-6.33-14.13-14.13c0-7.81,6.33-14.13,14.13-14.13
		c7.81,0,14.13,6.33,14.13,14.13C553.78,285.8,547.45,292.12,539.64,292.12z"/>
	<circle class="st1" cx="333.17" cy="143.21" r="3.72"/>
	<circle class="st1" cx="333.17" cy="180.65" r="7.76"/>
	
		<ellipse transform="matrix(0.7071 -0.7071 0.7071 0.7071 -39.7182 315.8598)" class="st1" cx="361.42" cy="205.87" rx="15.17" ry="15.17"/>
	<path class="st1" d="M290.41,239.57c-4.1,0-7.43,3.33-7.43,7.43c0,4.11,3.33,7.43,7.43,7.43c4.11,0,7.43-3.33,7.43-7.43
		C297.84,242.9,294.52,239.57,290.41,239.57z"/>
	<circle class="st1" cx="316.53" cy="206.4" r="7.78"/>
	<path class="st1" d="M337.83,231.51c-6.59,0-11.93,5.34-11.93,11.93c0,6.59,5.34,11.93,11.93,11.93c6.59,0,11.93-5.34,11.93-11.93
		C349.77,236.85,344.42,231.51,337.83,231.51z"/>
	<path class="st1" d="M373.62,255.23c-6.29,0-11.38,5.1-11.38,11.38c0,6.29,5.1,11.38,11.38,11.38c6.29,0,11.38-5.1,11.38-11.38
		C385,260.33,379.91,255.23,373.62,255.23z"/>
	<circle class="st1" cx="339.72" cy="282.11" r="3.78"/>
	<circle class="st1" cx="513.33" cy="157.89" r="6.1"/>
	<path class="st1" d="M421.06,143.22c4.39,0,7.95-3.56,7.95-7.95c0-4.39-3.56-7.95-7.95-7.95c-4.39,0-7.95,3.56-7.95,7.95
		C413.1,139.66,416.66,143.22,421.06,143.22z"/>
	<circle class="st1" cx="486.18" cy="164.47" r="6.49"/>
	
		<ellipse transform="matrix(0.7071 -0.7071 0.7071 0.7071 0.6118 436.8134)" class="st1" cx="527.59" cy="217.67" rx="14.12" ry="14.12"/>
	<path class="st1" d="M510.04,179.55c-3.94,0-7.13,3.19-7.13,7.13c0,3.94,3.19,7.13,7.13,7.13s7.13-3.19,7.13-7.13
		C517.17,182.74,513.98,179.55,510.04,179.55z"/>
	<path class="st1" d="M383.76,229.96c-4.04,0-7.31,3.27-7.31,7.31c0,4.04,3.27,7.31,7.31,7.31c4.04,0,7.31-3.27,7.31-7.31
		C391.07,233.24,387.8,229.96,383.76,229.96z"/>
	<path class="st1" d="M484.95,145.23c5.65,0,10.24-4.58,10.24-10.24s-4.58-10.24-10.24-10.24c-5.65,0-10.24,4.58-10.24,10.24
		S479.29,145.23,484.95,145.23z"/>
	<path class="st1" d="M449.3,131.96c4.69,0,8.49-3.8,8.49-8.49s-3.8-8.49-8.49-8.49c-4.69,0-8.49,3.8-8.49,8.49
		S444.61,131.96,449.3,131.96z"/>
	<circle class="st1" cx="446.21" cy="163.99" r="15.38"/>
	<circle class="st1" cx="380.2" cy="155.83" r="21.43"/>
	
		<ellipse transform="matrix(0.7071 -0.7071 0.7071 0.7071 -35.6662 424.3554)" class="st1" cx="494.41" cy="255.23" rx="15.45" ry="15.45"/>
	<circle class="st1" cx="539.64" cy="277.99" r="7.89"/>
	<path class="st1" d="M436.82,243.03c0-4.32-3.5-7.81-7.81-7.81c-4.32,0-7.81,3.5-7.81,7.81c0,4.32,3.5,7.81,7.81,7.81
		C433.32,250.85,436.82,247.35,436.82,243.03z"/>
	<path class="st1" d="M436.82,266.82c-2.76,0-5,2.24-5,5c0,2.76,2.24,5,5,5c2.76,0,5-2.24,5-5
		C441.82,269.06,439.58,266.82,436.82,266.82z"/>
	
		<ellipse transform="matrix(0.9732 -0.2298 0.2298 0.9732 -35.5714 100.7561)" class="st1" cx="414.89" cy="203.13" rx="16.94" ry="16.94"/>
	
		<ellipse transform="matrix(0.7071 -0.7071 0.7071 0.7071 -12.1592 392.8114)" class="st1" cx="468.09" cy="211.08" rx="21.71" ry="21.71"/>
	<path class="st1" d="M500.44,300.48c-2.9,0-5.26,2.35-5.26,5.26c0,2.9,2.35,5.26,5.26,5.26c2.9,0,5.26-2.35,5.26-5.26
		C505.7,302.84,503.35,300.48,500.44,300.48z"/>
	<g>
		<path class="st1" d="M46.05,20v47.72h-5.59L11.82,32.14v35.59H5.01V20h5.59l28.63,35.59V20H46.05z"/>
		<path class="st1" d="M101.82,61.79v5.93H67.18V20h33.68v5.93H74v14.66h23.93v5.8H74v15.41H101.82z"/>
		<path class="st1" d="M119.68,20h6.82v47.72h-6.82V20z"/>
		<path class="st1" d="M147.63,20h6.82v41.79h25.84v5.93h-32.66V20z"/>
		<path class="st1" d="M190.58,62.27l2.52-5.32c3.54,3.2,9.61,5.52,15.75,5.52c8.25,0,11.79-3.2,11.79-7.36
			c0-11.66-28.9-4.3-28.9-22.02c0-7.36,5.73-13.63,18.27-13.63c5.59,0,11.38,1.5,15.34,4.23l-2.25,5.45
			c-4.16-2.66-8.86-3.89-13.09-3.89c-8.11,0-11.59,3.41-11.59,7.57c0,11.66,28.91,4.36,28.91,21.88c0,7.3-5.86,13.57-18.47,13.57
			C201.55,68.27,194.4,65.82,190.58,62.27z"/>
		<path class="st1" d="M240.2,43.86c0-13.97,10.77-24.4,25.43-24.4c14.52,0,25.29,10.36,25.29,24.4s-10.77,24.41-25.29,24.41
			C250.98,68.27,240.2,57.84,240.2,43.86z M284.11,43.86c0-10.56-7.91-18.34-18.47-18.34c-10.7,0-18.61,7.77-18.61,18.34
			c0,10.57,7.91,18.34,18.61,18.34C276.2,62.2,284.11,54.43,284.11,43.86z"/>
		<path class="st1" d="M349.21,20v47.72h-5.59l-28.63-35.59v35.59h-6.82V20h5.59l28.63,35.59V20H349.21z"/>
		<path class="st1" d="M434.02,36.64c0,10.36-7.5,16.64-19.91,16.64h-11.79v14.45h-6.82V20h18.61
			C426.52,20,434.02,26.28,434.02,36.64z M427.2,36.64c0-6.82-4.57-10.7-13.29-10.7h-11.59v21.41h11.59
			C422.64,47.34,427.2,43.45,427.2,36.64z"/>
		<path class="st1" d="M481.95,55.79h-25.36l-5.25,11.93h-7.02L465.92,20h6.75l21.68,47.72h-7.16L481.95,55.79z M479.56,50.34
			l-10.29-23.38l-10.29,23.38H479.56z"/>
		<path class="st1" d="M540.16,67.72l-10.29-14.66c-0.95,0.07-1.98,0.13-3,0.13h-11.79v14.52h-6.82V20h18.61
			c12.41,0,19.91,6.28,19.91,16.64c0,7.36-3.82,12.68-10.5,15.07l11.32,16.02H540.16z M539.96,36.64c0-6.82-4.57-10.7-13.29-10.7
			h-11.59v21.47h11.59C535.39,47.41,539.96,43.45,539.96,36.64z"/>
		<path class="st1" d="M580.19,46.52l-8.73,8.86v12.34h-6.82V20h6.82v26.66L597.36,20h7.77l-20.38,21.48l21.68,26.24h-7.98
			L580.19,46.52z"/>
	</g>
	<g>
		<path class="st0" d="M4.31,733.69c0-11.47,8.76-19.84,20.56-19.84c5.98,0,11.19,2.05,14.74,6.04l-3.6,3.49
			c-2.99-3.16-6.65-4.6-10.92-4.6c-8.75,0-15.24,6.32-15.24,14.91c0,8.59,6.48,14.9,15.24,14.9c4.27,0,7.93-1.5,10.92-4.66l3.6,3.49
			c-3.55,3.99-8.75,6.1-14.79,6.1C13.07,753.53,4.31,745.16,4.31,733.69z"/>
		<path class="st0" d="M78.98,753.08l-8.37-11.91c-0.78,0.05-1.61,0.11-2.44,0.11h-9.59v11.8h-5.54v-38.79h15.13
			c10.08,0,16.18,5.1,16.18,13.52c0,5.98-3.1,10.31-8.53,12.25l9.2,13.02H78.98z M78.82,727.81c0-5.54-3.71-8.7-10.81-8.7h-9.42
			v17.46h9.42C75.1,736.57,78.82,733.35,78.82,727.81z"/>
		<path class="st0" d="M127,748.26v4.82H98.85v-38.79h27.38v4.82h-21.84v11.91h19.45v4.71h-19.45v12.52H127z"/>
		<path class="st0" d="M166.21,743.38H145.6l-4.27,9.7h-5.71l17.57-38.79h5.49l17.62,38.79h-5.82L166.21,743.38z M164.27,738.95
			l-8.37-19.01l-8.36,19.01H164.27z"/>
		<path class="st0" d="M195.28,719.11h-13.3v-4.82h32.08v4.82h-13.3v33.97h-5.49V719.11z"/>
		<path class="st0" d="M225.63,714.29h5.54v38.79h-5.54V714.29z"/>
		<path class="st0" d="M282.03,714.29l-17.01,38.79h-5.49l-17.07-38.79h5.98l13.96,31.86l14.08-31.86H282.03z"/>
		<path class="st0" d="M321.46,748.26v4.82H293.3v-38.79h27.38v4.82h-21.84v11.91h19.45v4.71h-19.45v12.52H321.46z"/>
		<path class="st0" d="M353.23,733.69c0-11.47,8.76-19.84,20.56-19.84c5.98,0,11.19,2.05,14.74,6.04l-3.6,3.49
			c-2.99-3.16-6.65-4.6-10.92-4.6c-8.75,0-15.24,6.32-15.24,14.91c0,8.59,6.48,14.9,15.24,14.9c4.27,0,7.93-1.5,10.92-4.66l3.6,3.49
			c-3.55,3.99-8.75,6.1-14.79,6.1C361.99,753.53,353.23,745.16,353.23,733.69z"/>
		<path class="st0" d="M430.12,748.26v4.82h-28.15v-38.79h27.38v4.82h-21.84v11.91h19.45v4.71h-19.45v12.52H430.12z"/>
		<path class="st0" d="M477.97,714.29v38.79h-4.54l-23.28-28.92v28.92h-5.54v-38.79h4.54l23.28,28.93v-28.93H477.97z"/>
		<path class="st0" d="M502.83,719.11h-13.3v-4.82h32.08v4.82h-13.3v33.97h-5.49V719.11z"/>
		<path class="st0" d="M559.11,753.08l-8.37-11.91c-0.78,0.05-1.61,0.11-2.44,0.11h-9.59v11.8h-5.54v-38.79h15.13
			c10.08,0,16.18,5.1,16.18,13.52c0,5.98-3.1,10.31-8.53,12.25l9.2,13.02H559.11z M558.94,727.81c0-5.54-3.71-8.7-10.81-8.7h-9.42
			v17.46h9.42C555.23,736.57,558.94,733.35,558.94,727.81z"/>
		<path class="st0" d="M607.13,748.26v4.82h-28.15v-38.79h27.38v4.82h-21.84v11.91h19.45v4.71h-19.45v12.52H607.13z"/>
	</g>
</g>
</svg>
